<svg xmlns="http://www.w3.org/2000/svg" version="1.1" xmlns:xlink="http://www.w3.org/1999/xlink" xmlns:svgjs="http://svgjs.dev/svgjs" width="1440" height="560" preserveAspectRatio="none" viewBox="0 0 1440 560"><g mask="url(&quot;#SvgjsMask1008&quot;)" fill="none"><rect width="1440" height="560" x="0" y="0" fill="rgba(7, 10, 15, 1)"></rect><path d="M1018.46-11.96C846.75-4.14 732.11 279.99 400.08 288.57 68.04 297.15-56.97 471.41-218.31 473.37" stroke="rgba(45, 89, 109, 1)" stroke-width="2"></path><path d="M1241.16-63.65C1060.09-61.98 905.39 122.06 542.07 125.87 178.75 129.68 25.25 330.9-157.02 333.07" stroke="rgba(45, 89, 109, 1)" stroke-width="2"></path><path d="M1152.03-57.16C987.06-16.72 936.4 420.01 677.46 429.02 418.52 438.03 440.17 359.02 202.88 359.02-34.4 359.02-151.76 428.83-271.69 429.02" stroke="rgba(45, 89, 109, 1)" stroke-width="2"></path><path d="M1097.07-103.29C966.39-92.73 879.09 169.02 649.68 170.3 420.27 171.58 425.98 100.3 202.28 100.3-21.41 100.3-131.9 170.09-245.11 170.3" stroke="rgba(45, 89, 109, 1)" stroke-width="2"></path><path d="M1014.11-23.33C913.4-20.7 939.45 117.52 639.18 124.39 338.91 131.26 88.89 394.53-110.69 398.79" stroke="rgba(45, 89, 109, 1)" stroke-width="2"></path></g><defs><mask id="SvgjsMask1008"><rect width="1440" height="560" fill="#ffffff"></rect></mask></defs></svg>